<svg xmlns="http://www.w3.org/2000/svg" xml:space="preserve" width="1500" height="285" viewBox="0 0 1500 285" data-version="1" data-id="lg_KTIELn8wGJ3EV4Fwcm"><g id="outer-wrapper" data-padding="20" transform="matrix(1,0,0,1,0,0)"><g id="inner-wrapper" transform="matrix(0.9709302325581395,0,0,0.9709302325581395,10,4.142441860465112)"><rect width="560" height="175.953" x="83.52218862275447" y="-345.58399999999995" fill="none" rx="0" ry="0" transform="translate(334.5 454.62)"></rect><path fill="#106a46" d="M505.1221886227546 132.11300000000006V245.93300000000005H500.10218862275457L492.04218862275457 234.75300000000004Q489.0821886227546 237.41300000000007 485.7721886227546 239.73300000000006T478.81218862275455 243.76300000000003T471.3221886227546 246.46300000000002T463.5321886227546 247.45300000000003Q454.94218862275454 247.45300000000003 447.3721886227546 244.223Q439.81218862275455 240.993 434.1421886227546 235.253Q428.48218862275456 229.51299999999998 425.2121886227546 221.64299999999997T421.94218862275454 204.493Q421.94218862275454 195.293 425.2121886227546 187.38299999999998Q428.48218862275456 179.483 434.1421886227546 173.70299999999997Q439.81218862275455 167.923 447.3721886227546 164.65299999999996Q454.94218862275454 161.38299999999998 463.5321886227546 161.38299999999998Q466.2721886227546 161.38299999999998 469.19218862275454 161.84299999999996Q472.1221886227546 162.29299999999995 474.9021886227546 163.32299999999998Q477.67218862275456 164.35299999999995 480.10218862275457 166.02299999999997Q482.54218862275457 167.69299999999998 484.2121886227546 170.13299999999998V132.113ZM484.2121886227546 204.49300000000005Q484.2121886227546 200.23300000000006 482.5721886227546 196.24300000000005Q480.9421886227546 192.25300000000004 478.1321886227546 189.17300000000006Q475.3121886227546 186.09300000000007 471.55218862275456 184.23300000000006T463.5321886227546 182.37300000000005T455.5121886227546 183.89300000000003Q451.7421886227546 185.413 448.9721886227546 188.26300000000003Q446.1921886227546 191.11300000000006 444.60218862275457 195.223Q443.0021886227546 199.32300000000004 443.0021886227546 204.493Q443.0021886227546 208.983 444.60218862275457 213.01299999999998Q446.1921886227546 217.04299999999995 448.9721886227546 220.08299999999997Q451.7421886227546 223.123 455.5121886227546 224.873Q459.2721886227546 226.623 463.5321886227546 226.623T471.55218862275456 224.753Q475.3121886227546 222.89299999999997 478.1321886227546 219.813Q480.9421886227546 216.733 482.5721886227546 212.743Q484.2121886227546 208.753 484.2121886227546 204.493M578.8721886227546 204.493Q578.8721886227546 200.233 577.2321886227546 196.243Q575.6021886227546 192.253 572.7921886227546 189.173Q569.9721886227546 186.09300000000002 566.2121886227546 184.233T558.1921886227545 182.373T550.1721886227546 183.813Q546.4021886227546 185.26299999999998 543.6321886227546 188.07299999999998Q540.8521886227545 190.88299999999998 539.2621886227546 195.03299999999996Q537.6621886227546 199.17299999999994 537.6621886227546 204.49299999999994Q537.6621886227546 209.59299999999996 539.2621886227546 213.65299999999996Q540.8521886227545 217.72299999999996 543.6321886227546 220.61299999999994Q546.4021886227546 223.50299999999993 550.1721886227546 225.06299999999993Q553.9321886227546 226.62299999999993 558.1921886227545 226.62299999999993T566.2121886227546 224.75299999999993Q569.9721886227546 222.89299999999992 572.7921886227546 219.81299999999993Q575.6021886227546 216.73299999999995 577.2321886227546 212.74299999999994Q578.8721886227546 208.75299999999993 578.8721886227546 204.49299999999994M599.7821886227546 164.6529999999999V235.6629999999999Q599.7821886227546 244.26299999999992 596.5121886227546 251.7829999999999Q593.2421886227546 259.3129999999999 587.5721886227545 264.94299999999987Q581.9121886227546 270.5629999999999 574.3421886227545 273.83299999999986Q566.7821886227546 277.10299999999984 558.1921886227545 277.10299999999984L547.7721886227546 276.95299999999986V256.193L558.0421886227546 256.34299999999996Q562.9021886227546 256.34299999999996 566.3221886227545 255.09299999999996T572.1021886227546 251.67299999999994T575.8621886227546 246.69299999999993Q577.2721886227546 243.88299999999992 578.1121886227546 240.76299999999992Q576.8921886227546 242.74299999999994 574.6121886227546 243.99299999999994T569.5521886227546 246.04299999999995Q566.7821886227546 246.84299999999996 563.7821886227546 247.14299999999997Q560.7721886227546 247.45299999999997 558.1921886227545 247.45299999999997Q549.6021886227545 247.45299999999997 542.0321886227546 244.48299999999995Q534.4721886227546 241.52299999999997 528.8021886227546 236.01299999999992Q523.1421886227546 230.49299999999994 519.8721886227546 222.51299999999992T516.6021886227545 204.49299999999994Q516.6021886227545 195.29299999999995 519.8721886227546 187.38299999999992Q523.1421886227546 179.48299999999995 528.8021886227546 173.70299999999992Q534.4721886227546 167.92299999999994 542.0321886227546 164.6529999999999Q549.6021886227545 161.38299999999992 558.1921886227545 161.38299999999992Q562.1421886227546 161.38299999999992 566.0221886227546 162.37299999999993T573.5521886227546 165.11299999999994T580.5021886227546 169.21299999999997Q583.8121886227545 171.57299999999998 586.7021886227545 174.313L594.7621886227546 164.65299999999996ZM705.0021886227546 136.9029999999999V245.93299999999988H681.6621886227547L639.6221886227546 174.1629999999999V245.93299999999988H617.8021886227546V136.90300000000002H641.1421886227546L683.1821886227547 208.75300000000004V136.90300000000002ZM801.7121886227546 204.49299999999994Q801.7121886227546 213.62299999999993 798.4421886227547 221.48299999999995Q795.1821886227547 229.35299999999995 789.5521886227546 235.09299999999996T776.3621886227546 244.14299999999997Q768.7921886227546 247.45299999999997 760.1221886227546 247.45299999999997Q751.5321886227546 247.45299999999997 743.9721886227546 244.14299999999997Q736.4021886227547 240.83299999999997 730.7421886227546 235.09299999999996Q725.0721886227545 229.35299999999995 721.8121886227545 221.48299999999995Q718.5421886227546 213.62299999999993 718.5421886227546 204.49299999999994Q718.5421886227546 195.22299999999996 721.8121886227545 187.31299999999993Q725.0721886227545 179.4029999999999 730.7421886227546 173.66299999999995Q736.4021886227547 167.92299999999994 743.9721886227546 164.65299999999996Q751.5321886227546 161.38299999999998 760.1221886227546 161.38299999999998Q768.7921886227546 161.38299999999998 776.3621886227546 164.46299999999997Q783.9221886227547 167.54299999999995 789.5521886227546 173.21299999999997Q795.1821886227547 178.873 798.4421886227547 186.813Q801.7121886227546 194.76299999999998 801.7121886227546 204.493M780.8121886227545 204.493Q780.8121886227545 199.473 779.1721886227547 195.413Q777.5421886227546 191.34300000000002 774.7221886227546 188.413Q771.9121886227547 185.483 768.1521886227547 183.933Q764.3821886227547 182.373 760.1221886227547 182.373Q755.8721886227547 182.373 752.1021886227547 183.933Q748.3421886227547 185.483 745.5721886227548 188.413Q742.7921886227548 191.34300000000002 741.1921886227547 195.413Q739.6021886227547 199.473 739.6021886227547 204.493Q739.6021886227547 209.21300000000002 741.1921886227547 213.243Q742.7921886227548 217.26299999999998 745.5721886227548 220.233Q748.3421886227547 223.20300000000003 752.1021886227547 224.913Q755.8721886227547 226.623 760.1221886227547 226.623Q764.3821886227547 226.623 768.1521886227547 225.02299999999997Q771.9121886227547 223.42299999999994 774.7221886227546 220.53299999999996Q777.5421886227546 217.64299999999997 779.1721886227547 213.54299999999995Q780.8121886227545 209.43299999999994 780.8121886227545 204.49299999999994M857.1421886227546 245.92299999999994H836.3121886227545L805.2921886227546 164.49299999999994H828.9321886227547L846.7221886227546 215.28299999999996L864.4421886227547 164.49299999999994H888.1621886227547ZM974.9121886227546 164.65299999999996V245.933H969.8921886227546L961.8321886227546 234.753Q958.8721886227546 237.413 955.5621886227547 239.733T948.6021886227546 243.76299999999998Q944.9621886227546 245.47299999999996 941.1221886227546 246.46299999999997T933.3221886227547 247.45299999999997Q924.7321886227546 247.45299999999997 917.1721886227547 244.563Q909.6021886227546 241.673 903.9421886227547 236.163Q898.2721886227547 230.65300000000002 895.0021886227546 222.663Q891.7321886227546 214.683 891.7321886227546 204.493Q891.7321886227546 194.993 895.0021886227546 187.043Q898.2721886227546 179.103 903.9421886227547 173.40300000000002Q909.6021886227546 167.69300000000004 917.1721886227547 164.543Q924.7321886227546 161.38299999999998 933.3221886227547 161.38299999999998Q937.2821886227547 161.38299999999998 941.1521886227547 162.373Q945.0321886227547 163.363 948.6821886227547 165.113T955.6421886227547 169.21300000000002Q958.9521886227546 171.57300000000004 961.8321886227548 174.31300000000005L969.8921886227547 164.65300000000002ZM954.0021886227546 204.49299999999994Q954.0021886227546 200.23299999999995 952.3721886227546 196.24299999999994Q950.7321886227546 192.25299999999993 947.9221886227546 189.17299999999994T941.3421886227545 184.23299999999995Q937.5821886227545 182.37299999999993 933.3221886227545 182.37299999999993Q929.0721886227545 182.37299999999993 925.3021886227546 183.81299999999993Q921.5421886227546 185.26299999999992 918.7621886227546 188.07299999999992Q915.9921886227546 190.88299999999992 914.3921886227546 195.0329999999999Q912.7921886227546 199.1729999999999 912.7921886227546 204.49299999999988T914.3921886227546 213.9629999999999Q915.9921886227546 218.1029999999999 918.7621886227546 220.9129999999999Q921.5421886227546 223.7329999999999 925.3021886227546 225.1729999999999Q929.0721886227545 226.62299999999988 933.3221886227545 226.62299999999988Q937.5821886227545 226.62299999999988 941.3421886227545 224.75299999999987Q945.1121886227545 222.89299999999986 947.9221886227546 219.81299999999987T952.3721886227546 212.74299999999988Q954.0021886227546 208.75299999999987 954.0021886227546 204.49299999999988 "></path><path fill="#106a46" d="M1022.4241886227546 150.54700000000003C997.1591886227546 180.37300000000005 971.1291886227547 182.28700000000003 971.2561886227546 184.106C962.1011886227546 114.56399999999996 1006.2831886227547 63.524 1006.2831886227547 63.524A156.3 156.3 0 0 0 983.9531886227546 91.37200000000001C973.1701886227546 82.24900000000002 967.4281886227546 54.367999999999995 967.4281886227546 54.367999999999995C969.9801886227547 87.28899999999999 979.0721886227547 99.73000000000002 979.0721886227547 99.73000000000002C979.9021886227547 98.16700000000003 981.3051886227546 95.77500000000003 982.3891886227547 93.92400000000004A156.3 156.3 0 0 0 963.8561886227546 141.264L964.0791886227546 140.05200000000002C958.0181886227546 121.86900000000003 937.0591886227546 107.54600000000005 937.0591886227546 107.54600000000005C953.7431886227546 124.77200000000005 961.5271886227546 154.18300000000005 961.5271886227546 154.18300000000005L962.0051886227545 151.18500000000006A210.54 210.54 0 0 0 970.2351886227545 246.72500000000008H993.9691886227546A162.7 162.7 0 0 1 972.7881886227545 193.45200000000006L973.3301886227546 195.62200000000007C999.6471886227546 183.50000000000006 1022.4241886227546 150.57900000000006 1022.4241886227546 150.57900000000006 "></path><path fill="#106a46" d="M989.5031886227546 153.09900000000005S979.4231886227545 81.06900000000007 1106.2891886227546 82.56800000000004C1106.2891886227546 82.56800000000004 1091.7751886227547 192.52800000000002 1014.9911886227546 184.23300000000006C1014.9911886227546 184.23300000000006 1043.1591886227548 160.62700000000007 1043.1591886227548 133.60800000000006C1043.1591886227548 133.60800000000006 1021.4991886227547 125.25000000000006 989.5031886227547 153.09800000000007M935.9751886227547 127.57900000000006S878.3641886227547 139.54100000000005 872.8451886227547 37.04700000000008C872.8451886227547 37.04700000000008 962.3881886227547 42.94800000000009 959.7401886227547 105.34500000000008C959.7401886227547 105.34500000000008 939.2291886227547 83.87500000000011 917.4101886227546 85.31100000000009C917.4101886227546 85.31100000000009 911.8271886227546 103.23900000000009 935.9751886227547 127.57900000000006M989.3121886227547 61.67300000000006S979.3911886227546 17.396000000000072 1058.3431886227547 11.909000000000049C1058.3431886227547 11.909000000000049 1054.8981886227548 81.00500000000005 1006.7291886227547 79.76100000000008C1006.7291886227547 79.76100000000008 1023.0621886227547 63.65100000000007 1021.6901886227547 46.84000000000009C1021.6901886227547 46.84000000000009 1007.7821886227547 42.75700000000006 989.3121886227547 61.673000000000116 "></path><path fill="#106a46" d="M958.1771886227546 61.86500000000001S927.0111886227545 50.85900000000004 954.1901886227546 0.011000000000024102C954.1901886227546 0.011000000000024102 995.4681886227546 28.88100000000003 976.0731886227546 58.101C976.0731886227546 58.101 972.4371886227547 41.83100000000002 961.5591886227546 36.15300000000002C961.5591886227546 36.15300000000002 953.6481886227547 43.17099999999999 958.1771886227547 61.86500000000001 "></path></g><rect width="688" height="285" x="406" y="0" id="space-saver" fill="transparent" stroke="transparent"></rect></g></svg>